<svg xmlns="http://www.w3.org/2000/svg" width="160" height="160" viewBox="0 0 160 160"><defs><linearGradient id="bgi" x1="0" y1="0" x2="1" y2="1"><stop offset="0%" stop-color="#ED6A3A"/><stop offset="100%" stop-color="#B23E1C"/></linearGradient><linearGradient id="rgi" x1="0" y1="0" x2="1" y2="1"><stop offset="0%" stop-color="#FFFFFF"/><stop offset="100%" stop-color="#D3DEEE"/></linearGradient><radialGradient id="eli" cx="35%" cy="30%" r="80%"><stop offset="0%" stop-color="#FFFFFF"/><stop offset="55%" stop-color="#DCE5F1"/><stop offset="100%" stop-color="#B4C0D6"/></radialGradient><radialGradient id="nui" cx="35%" cy="30%" r="75%"><stop offset="0%" stop-color="#FCEFC6"/><stop offset="45%" stop-color="#E6BC58"/><stop offset="100%" stop-color="#B6852A"/></radialGradient></defs><rect width="160" height="160" rx="38" fill="url(#bgi)"/><g transform="translate(80,62) scale(0.5) translate(-80,-80)"><circle cx="80" cy="80" r="64" fill="none" stroke="url(#rgi)" stroke-width="4.5"/><circle cx="80" cy="80" r="33" fill="none" stroke="url(#rgi)" stroke-width="4"/><circle cx="144.0" cy="80.0" r="7" fill="url(#eli)"/><circle cx="112.0" cy="24.6" r="7" fill="url(#eli)"/><circle cx="48.0" cy="24.6" r="7" fill="url(#eli)"/><circle cx="16.0" cy="80.0" r="7" fill="url(#eli)"/><circle cx="48.0" cy="135.4" r="7" fill="url(#eli)"/><circle cx="112.0" cy="135.4" r="7" fill="url(#eli)"/><circle cx="80.0" cy="47.0" r="6.5" fill="url(#eli)"/><circle cx="80.0" cy="113.0" r="6.5" fill="url(#eli)"/><circle cx="80" cy="80" r="17" fill="url(#nui)"/><circle cx="80" cy="80" r="17.5" fill="none" stroke="#7E5C12" stroke-width="2"/><ellipse cx="74.6" cy="73.5" rx="7.1" ry="5.1" fill="#fff" opacity="0.5"/></g><path transform="translate(52.02,132.00) scale(0.01150,-0.01150)" d="M684 -30Q524 -30 395.5 26.5Q267 83 184.5 188.5Q102 294 80 440L364 482Q394 358 488.0 291.0Q582 224 702 224Q769 224 832.0 245.0Q895 266 935.5 307.0Q976 348 976 408Q976 430 969.5 450.5Q963 471 948.0 489.0Q933 507 905.5 523.0Q878 539 836 552L462 662Q420 674 364.5 696.0Q309 718 257.0 759.0Q205 800 170.5 867.5Q136 935 136 1038Q136 1183 209.0 1279.0Q282 1375 404.0 1422.0Q526 1469 674 1468Q823 1466 940.0 1417.0Q1057 1368 1136.0 1274.5Q1215 1181 1250 1046L956 996Q940 1066 897.0 1114.0Q854 1162 794.5 1187.0Q735 1212 670 1214Q606 1216 549.5 1196.5Q493 1177 457.5 1140.0Q422 1103 422 1052Q422 1005 451.0 975.5Q480 946 524.0 928.0Q568 910 614 898L864 830Q920 815 988.0 790.5Q1056 766 1118.5 722.5Q1181 679 1221.5 608.0Q1262 537 1262 428Q1262 312 1213.5 225.5Q1165 139 1083.0 82.5Q1001 26 897.5 -2.0Q794 -30 684 -30Z" fill="#FFFFFF"/><path transform="translate(67.45,132.00) scale(0.01150,-0.01150)" d="M876 0V510Q876 547 872.0 604.5Q868 662 847.0 720.0Q826 778 778.5 817.0Q731 856 644 856Q609 856 569.0 845.0Q529 834 494.0 802.5Q459 771 436.5 710.0Q414 649 414 548L258 622Q258 750 310.0 862.0Q362 974 466.5 1043.0Q571 1112 730 1112Q857 1112 937.0 1069.0Q1017 1026 1061.5 960.0Q1106 894 1125.0 822.5Q1144 751 1148.0 692.0Q1152 633 1152 606V0ZM138 0V1440H380V700H414V0Z" fill="#FFFFFF"/><path transform="translate(82.08,132.00) scale(0.01150,-0.01150)" d="M160 1230V1470H432V1230ZM160 0V1080H432V0Z" fill="#FFFFFF"/><path transform="translate(88.89,132.00) scale(0.01150,-0.01150)" d="M230 0V1076Q230 1117 232.0 1169.0Q234 1221 248.5 1274.0Q263 1327 302 1370Q352 1426 410.5 1446.5Q469 1467 524.0 1468.5Q579 1470 618 1470H752V1250H628Q564 1250 533.0 1217.5Q502 1185 502 1140V0ZM60 870V1080H752V870Z" fill="#FFFFFF"/><path transform="translate(97.77,132.00) scale(0.01150,-0.01150)" d="M788 0Q676 -21 568.5 -18.5Q461 -16 376.5 19.5Q292 55 248 134Q208 208 206.0 284.5Q204 361 204 458V1380H476V474Q476 411 477.5 360.5Q479 310 498 280Q534 223 613.0 218.0Q692 213 788 226ZM20 870V1080H788V870Z" fill="#FFFFFF"/></svg>