<svg xmlns="http://www.w3.org/2000/svg" width="160" height="160" viewBox="0 0 160 160"><defs><linearGradient id="bgi" x1="0" y1="0" x2="1" y2="1"><stop offset="0%" stop-color="#7350EA"/><stop offset="100%" stop-color="#3F2A9E"/></linearGradient><linearGradient id="rgi" x1="0" y1="0" x2="1" y2="1"><stop offset="0%" stop-color="#FFFFFF"/><stop offset="100%" stop-color="#D3DEEE"/></linearGradient><radialGradient id="eli" cx="35%" cy="30%" r="80%"><stop offset="0%" stop-color="#FFFFFF"/><stop offset="55%" stop-color="#DCE5F1"/><stop offset="100%" stop-color="#B4C0D6"/></radialGradient><radialGradient id="nui" cx="35%" cy="30%" r="75%"><stop offset="0%" stop-color="#FCEFC6"/><stop offset="45%" stop-color="#E6BC58"/><stop offset="100%" stop-color="#B6852A"/></radialGradient></defs><rect width="160" height="160" rx="38" fill="url(#bgi)"/><g transform="translate(80,80) scale(0.65) translate(-80,-80)"><circle cx="80" cy="80" r="64" fill="none" stroke="url(#rgi)" stroke-width="4.5"/><circle cx="80" cy="80" r="33" fill="none" stroke="url(#rgi)" stroke-width="4"/><circle cx="144.0" cy="80.0" r="7" fill="url(#eli)"/><circle cx="112.0" cy="24.6" r="7" fill="url(#eli)"/><circle cx="48.0" cy="24.6" r="7" fill="url(#eli)"/><circle cx="16.0" cy="80.0" r="7" fill="url(#eli)"/><circle cx="48.0" cy="135.4" r="7" fill="url(#eli)"/><circle cx="112.0" cy="135.4" r="7" fill="url(#eli)"/><circle cx="80.0" cy="47.0" r="6.5" fill="url(#eli)"/><circle cx="80.0" cy="113.0" r="6.5" fill="url(#eli)"/><circle cx="80" cy="80" r="17" fill="url(#nui)"/><circle cx="80" cy="80" r="17.5" fill="none" stroke="#7E5C12" stroke-width="2"/><ellipse cx="74.6" cy="73.5" rx="7.1" ry="5.1" fill="#fff" opacity="0.5"/></g></svg>